<?xml version="1.0" encoding="iso-8859-1"?>
<!-- Generator: Adobe Illustrator 16.0.0, SVG Export Plug-In . SVG Version: 6.00 Build 0)  -->
<!DOCTYPE svg PUBLIC "-//W3C//DTD SVG 1.1//EN" "http://www.w3.org/Graphics/SVG/1.1/DTD/svg11.dtd">
<svg version="1.1" id="Capa_1" xmlns="http://www.w3.org/2000/svg" xmlns:xlink="http://www.w3.org/1999/xlink" x="0px" y="0px"
	 width="450.47px" height="450.47px" viewBox="0 0 450.47 450.47" style="enable-background:new 0 0 450.47 450.47;"
	 xml:space="preserve">
<g>
	<path d="M237.298,99.533c-0.301-0.34-0.562-0.677-0.916-0.999c-3.937-3.535-4.043-2.491,0.266-6.463
		c3.192-2.929,7.063-5.222,10.574-7.755c9.286-6.711,15.398-15.699,19.529-26.356C276.02,34.033,248.707,17.503,235,3.344
		c-9.904-10.247-25.496,5.382-15.604,15.604c7.643,7.912,17.489,14.328,24.14,23.123c7.453,9.848-3.901,20.712-11.68,26.194
		c-12.026,8.473-22.423,19.727-20.02,31.794c-53.971,5.042-103.87,34.623-103.87,86.767V333.2c0,64.664,52.603,117.27,117.27,117.27
		c64.663,0,117.27-52.605,117.27-117.27V186.817C342.51,129.888,289.543,102.317,237.298,99.533z M130.044,186.817
		c0-38.707,42.017-61.117,85.535-64.841v135.005c-39.697-1.998-71.928-11.042-85.535-15.457V186.817z M320.433,333.194
		c0,52.5-42.705,95.199-95.192,95.199c-52.488,0-95.196-42.699-95.196-95.199V264.73c19.713,5.958,56.817,14.995,100.676,14.995
		c28.088,0,58.93-3.759,89.713-14.352V333.194z M320.433,241.896c-27.916,10.675-56.424,14.849-82.78,15.415v-135.66
		c42.569,2.553,82.78,22.969,82.78,65.175V241.896z M206.072,133.429v111.973c-17.153,3.027-67.583-11.094-67.583-11.094
		C131.049,155.812,160.429,142.005,206.072,133.429z"/>
</g><g></g>
</svg>
