<?xml version="1.0" encoding="utf-8"?>
<!DOCTYPE svg PUBLIC "-//W3C//DTD SVG 1.1//EN" "http://www.w3.org/Graphics/SVG/1.1/DTD/svg11.dtd">
<svg version="1.1" id="Layer_1" xmlns="http://www.w3.org/2000/svg" xmlns:xlink="http://www.w3.org/1999/xlink" x="0px" y="0px"
	 width="450px" height="250px" viewBox="0 0 450 250" enable-background="new 0 0 450 250" xml:space="preserve">
<g>
	<g>
		<g>
			<path fill="#555" d="M171.151,95.819c0,4.441-3.671,8.042-8.199,8.042H96.549c-4.528,0-8.199-3.6-8.199-8.042V29.37
				c0-4.441,3.671-8.042,8.199-8.042h66.403c4.528,0,8.199,3.6,8.199,8.042V95.819z"/>
		</g>
		<g>
			<path fill="#EEE" d="M118.815,74.94l-7.489-28.223h3.831l4.293,18.501c0.462,1.938,0.859,3.863,1.193,5.775
				c0.719-3.016,1.143-4.755,1.271-5.217l5.372-19.059h4.505l4.043,14.285c1.014,3.542,1.745,6.873,2.194,9.992
				c0.359-1.784,0.828-3.831,1.405-6.141l4.428-18.135h3.754l-7.739,28.223h-3.6l-5.949-21.504c-0.5-1.796-0.796-2.9-0.885-3.311
				c-0.296,1.296-0.571,2.4-0.828,3.311l-5.987,21.504L118.815,74.94L118.815,74.94z"/>
		</g>
	</g>
	<g>
		<g>
			<path fill="#555" d="M289.922,184.978c0,4.441-3.671,8.042-8.199,8.042H215.32c-4.528,0-8.199-3.6-8.199-8.042v-66.45
				c0-4.441,3.671-8.042,8.199-8.042h66.403c4.528,0,8.199,3.6,8.199,8.042V184.978z"/>
		</g>
		<g>
			<path fill="#EEE" d="M238.913,163.896v-28.224h9.722c2.195,0,3.87,0.135,5.025,0.404c1.617,0.373,2.996,1.047,4.139,2.021
				c1.488,1.258,2.602,2.866,3.34,4.823s1.107,4.193,1.107,6.709c0,2.144-0.25,4.043-0.751,5.698c-0.5,1.655-1.143,3.026-1.925,4.11
				c-0.783,1.085-1.64,1.938-2.57,2.561c-0.931,0.623-2.054,1.095-3.369,1.415c-1.315,0.321-2.827,0.481-4.534,0.481h-10.184
				V163.896z M242.647,160.565h6.026c1.86,0,3.32-0.173,4.38-0.52c1.059-0.347,1.902-0.834,2.531-1.463
				c0.886-0.886,1.575-2.076,2.069-3.571s0.741-3.309,0.741-5.438c0-2.952-0.484-5.221-1.453-6.806
				c-0.97-1.585-2.146-2.647-3.533-3.187c-1.001-0.385-2.611-0.577-4.832-0.577h-5.93L242.647,160.565L242.647,160.565z"/>
		</g>
	</g>
	<g>
		<g>
			<path fill="#555" d="M102.689,184.978c0,4.441-3.671,8.042-8.199,8.042H28.086c-4.528,0-8.199-3.6-8.199-8.042v-66.45
				c0-4.441,3.671-8.042,8.199-8.042h66.403c4.528,0,8.199,3.6,8.199,8.042v66.45H102.689z"/>
		</g>
		<g>
			<path fill="#EEE" d="M47.486,163.084l10.839-28.223h4.023l11.551,28.223h-4.255l-3.292-8.548h-11.8l-3.1,8.548L47.486,163.084
				L47.486,163.084z M55.63,151.495h9.568l-2.946-7.816c-0.898-2.375-1.565-4.325-2.002-5.853c-0.359,1.81-0.866,3.607-1.521,5.391
				L55.63,151.495z"/>
		</g>
	</g>
	<g>
		<g>
			<path fill="#555" d="M196.305,184.978c0,4.441-3.671,8.042-8.199,8.042h-66.403c-4.528,0-8.199-3.6-8.199-8.042v-66.45
				c0-4.441,3.671-8.042,8.199-8.042h66.403c4.528,0,8.199,3.6,8.199,8.042V184.978z"/>
		</g>
		<g>
			<path fill="#EEE" d="M143.682,154.017l3.522-0.308c0.167,1.412,0.556,2.57,1.165,3.475s1.556,1.637,2.84,2.195
				c1.283,0.559,2.727,0.837,4.331,0.837c1.425,0,2.683-0.211,3.773-0.635c1.091-0.423,1.903-1.004,2.436-1.742
				c0.532-0.738,0.799-1.543,0.799-2.416c0-0.886-0.257-1.659-0.77-2.32c-0.514-0.661-1.361-1.216-2.542-1.666
				c-0.757-0.295-2.432-0.754-5.024-1.376c-2.593-0.622-4.408-1.209-5.448-1.761c-1.348-0.706-2.352-1.582-3.013-2.628
				s-0.991-2.217-0.991-3.514c0-1.424,0.404-2.756,1.213-3.995c0.809-1.238,1.989-2.179,3.542-2.82s3.279-0.963,5.179-0.963
				c2.092,0,3.937,0.337,5.535,1.011s2.826,1.666,3.687,2.975c0.859,1.309,1.321,2.792,1.386,4.447l-3.581,0.27
				c-0.192-1.784-0.844-3.131-1.953-4.043c-1.11-0.911-2.75-1.367-4.919-1.367c-2.26,0-3.905,0.414-4.938,1.242
				s-1.55,1.826-1.55,2.994c0,1.014,0.366,1.848,1.098,2.502c0.719,0.655,2.596,1.326,5.631,2.012
				c3.035,0.687,5.118,1.287,6.247,1.8c1.643,0.757,2.855,1.717,3.639,2.878c0.783,1.162,1.175,2.5,1.175,4.014
				c0,1.501-0.431,2.917-1.29,4.245c-0.86,1.328-2.096,2.361-3.706,3.1c-1.611,0.738-3.424,1.107-5.438,1.107
				c-2.555,0-4.694-0.373-6.421-1.117s-3.08-1.864-4.062-3.359C144.249,157.594,143.732,155.903,143.682,154.017z"/>
		</g>
	</g>
</g>

<svg version="1.1" xmlns="http://www.w3.org/2000/svg" xmlns:xlink="http://www.w3.org/1999/xlink" x="320px" y="10px">
<g transform="scale(0.38)">
	<path fill="#555" d="M237.298,99.533c-0.301-0.34-0.562-0.677-0.916-0.999c-3.937-3.535-4.043-2.491,0.266-6.463
		c3.192-2.929,7.063-5.222,10.574-7.755c9.286-6.711,15.398-15.699,19.529-26.356C276.02,34.033,248.707,17.503,235,3.344
		c-9.904-10.247-25.496,5.382-15.604,15.604c7.643,7.912,17.489,14.328,24.14,23.123c7.453,9.848-3.901,20.712-11.68,26.194
		c-12.026,8.473-22.423,19.727-20.02,31.794c-53.971,5.042-103.87,34.623-103.87,86.767V333.2c0,64.664,52.603,117.27,117.27,117.27
		c64.663,0,117.27-52.605,117.27-117.27V186.817C342.51,129.888,289.543,102.317,237.298,99.533z M130.044,186.817
		c0-38.707,42.017-61.117,85.535-64.841v135.005c-39.697-1.998-71.928-11.042-85.535-15.457V186.817z M320.433,333.194
		c0,52.5-42.705,95.199-95.192,95.199c-52.488,0-95.196-42.699-95.196-95.199V264.73c19.713,5.958,56.817,14.995,100.676,14.995
		c28.088,0,58.93-3.759,89.713-14.352V333.194z M320.433,241.896c-27.916,10.675-56.424,14.849-82.78,15.415v-135.66
		c42.569,2.553,82.78,22.969,82.78,65.175V241.896z M206.072,133.429v111.973c-17.153,3.027-67.583-11.094-67.583-11.094
		C131.049,155.812,160.429,142.005,206.072,133.429z"/>
</g>
</svg>

</svg>