<?xml version="1.0" encoding="UTF-8" standalone="no"?>
<!DOCTYPE svg PUBLIC "-//W3C//DTD SVG 1.1//EN" "http://www.w3.org/Graphics/SVG/1.1/DTD/svg11.dtd">
<svg version="1.1" xmlns="http://www.w3.org/2000/svg" xmlns:xlink="http://www.w3.org/1999/xlink" preserveAspectRatio="xMidYMid meet" viewBox="30.54810626297089 41.11538461538464 288.14612903404554 169.378989620266" width="268" height="155.98"><defs><path d="M271.39 42.12C276.57 42.12 280.77 46.31 280.77 51.49C280.77 69.56 280.77 114.38 280.77 132.45C280.77 137.63 276.57 141.83 271.39 141.83C231.26 141.83 120.23 141.83 80.1 141.83C74.92 141.83 70.72 137.63 70.72 132.45C70.72 114.38 70.72 69.56 70.72 51.49C70.72 46.31 74.92 42.12 80.1 42.12C120.23 42.12 231.26 42.12 271.39 42.12Z" id="aaIc2dMKR"></path><path d="M263.3 50.29C268.43 50.29 272.6 54.45 272.6 59.59C272.6 74.73 272.6 110.85 272.6 125.99C272.6 131.12 268.43 135.29 263.3 135.29C226.09 135.29 123.77 135.29 86.56 135.29C81.42 135.29 77.26 131.12 77.26 125.99C77.26 110.85 77.26 74.73 77.26 59.59C77.26 54.45 81.42 50.29 86.56 50.29C123.77 50.29 226.09 50.29 263.3 50.29Z" id="g4ZDEaGLo"></path><path d="M127.93 107.91C127.93 119.86 118.23 129.57 106.27 129.57C94.32 129.57 84.62 119.86 84.62 107.91C84.62 95.95 94.32 86.25 106.27 86.25C118.23 86.25 127.93 95.95 127.93 107.91Z" id="b3Pz27T9co"></path><path d="M312.19 139.94C311.51 134.43 310.8 128.73 305.75 119.98C304.36 117.58 293.28 98.39 291.9 95.99C289.67 92.13 284.12 90.64 280.26 92.87C278.96 93.62 277.88 94.74 277.14 96.08C275.71 94.02 273.62 92.54 271.16 91.88C268.42 91.15 265.55 91.53 263.08 92.95C260.74 94.3 259.1 96.42 258.31 98.8C254.98 96.05 250.14 95.49 246.19 97.78C243.88 99.11 242.19 101.21 241.38 103.72C239.55 101.14 224.88 80.51 223.05 77.93C217.66 70.58 212.35 72.08 209.66 73.63C207.19 75.06 205.56 77.33 205.06 80.04C204.61 82.52 205.14 85.25 206.6 87.77C209.55 92.56 233.14 130.88 236.08 135.67C236.7 136.67 238.01 136.98 239.01 136.36C240.02 135.75 240.33 134.44 239.71 133.44C236.77 128.65 213.21 90.37 210.26 85.59C209.34 83.99 208.98 82.29 209.26 80.8C209.53 79.33 210.4 78.12 211.79 77.32C212.75 76.77 215.67 75.08 219.6 80.43C221.88 83.64 240.12 109.3 242.4 112.5C243.06 113.43 244.33 113.68 245.29 113.06C246.25 112.45 246.55 111.19 245.98 110.2C245.13 108.72 244.9 107 245.34 105.35C245.78 103.7 246.84 102.32 248.32 101.47C251.37 99.71 255.29 100.76 257.05 103.81C257.26 104.18 258.96 107.12 259.17 107.49C259.18 107.49 259.18 107.5 259.18 107.5C259.77 108.52 261.07 108.87 262.09 108.28C263.11 107.69 263.46 106.39 262.87 105.37C261.11 102.32 262.16 98.4 265.21 96.64C266.69 95.79 268.42 95.56 270.06 96C271.71 96.44 273.09 97.5 273.94 98.98C274.26 99.53 276.81 103.95 277.13 104.5C277.13 104.51 277.13 104.51 277.13 104.51C277.73 105.53 279.03 105.88 280.05 105.29C281.07 104.71 281.41 103.4 280.83 102.38C280.29 101.45 280.15 100.28 280.46 99.15C280.77 98.04 281.47 97.09 282.39 96.56C284.25 95.49 287.14 96.26 288.21 98.12C289.59 100.52 300.67 119.71 302.06 122.11C306.68 130.11 307.3 135.14 307.96 140.46C308.45 144.41 308.95 148.47 310.92 153.89C306.8 156.27 273.83 175.31 269.71 177.68C262.53 169.95 251.55 161.84 237.05 153.55C235.49 152.65 233.93 151.79 232.4 150.95C228.49 148.82 225.72 144.58 225.67 140.64C225.65 138.85 226.21 136.37 229.02 134.76C230.04 134.17 230.39 132.86 229.8 131.84C229.21 130.83 227.9 130.48 226.89 131.06C223.31 133.13 221.36 136.55 221.42 140.69C221.48 146.18 225.08 151.81 230.37 154.7C231.87 155.52 233.4 156.37 234.94 157.25C249.84 165.77 260.86 174.03 267.68 181.8C268.1 182.27 268.69 182.52 269.28 182.52C269.65 182.52 270.02 182.43 270.35 182.24C274.78 179.68 310.2 159.23 314.63 156.67C315.55 156.14 315.94 155.01 315.54 154.03C313.22 148.25 312.7 144.02 312.19 139.94Z" id="amsURxkkr"></path><path d="M32.03 172.23C31.66 166.7 31.27 160.98 34.14 151.58C34.93 149 41.22 128.39 42.01 125.81C43.27 121.66 47.85 119.33 51.62 120.92C52.88 121.46 54.01 122.39 54.89 123.6C55.78 121.34 57.35 119.57 59.37 118.54C61.64 117.38 64.21 117.31 66.61 118.32C68.89 119.29 70.69 121.12 71.8 123.34C74.23 120.11 78.35 118.82 82.2 120.45C84.44 121.4 86.28 123.2 87.43 125.55C88.58 122.72 97.75 100.13 98.9 97.31C102.31 89.23 107.2 89.88 109.82 90.99C112.23 92.01 114.05 93.99 114.96 96.58C115.79 98.95 115.8 101.72 114.97 104.43C113.24 109.6 99.4 151 97.67 156.17C97.31 157.25 96.22 157.77 95.24 157.32C94.25 156.86 93.75 155.62 94.11 154.54C95.84 149.37 109.67 108.02 111.4 102.85C111.92 101.14 111.93 99.41 111.43 97.98C110.94 96.57 109.96 95.53 108.61 94.95C107.67 94.56 104.84 93.35 102.35 99.23C100.92 102.74 89.52 130.84 88.09 134.35C87.68 135.37 86.61 135.81 85.67 135.35C84.73 134.9 84.24 133.71 84.56 132.65C85.05 131.06 84.94 129.33 84.27 127.77C83.59 126.22 82.43 125.03 80.99 124.42C78.02 123.16 74.78 124.8 73.78 128.08C73.66 128.47 72.7 131.63 72.58 132.03C72.57 132.03 72.57 132.04 72.57 132.04C72.24 133.14 71.16 133.68 70.17 133.26C69.18 132.84 68.64 131.62 68.98 130.52C69.98 127.24 68.38 123.55 65.4 122.29C63.96 121.68 62.41 121.73 61.06 122.42C59.7 123.11 58.68 124.36 58.2 125.95C58.02 126.55 56.57 131.29 56.39 131.89C56.39 131.89 56.39 131.89 56.38 131.9C56.05 132.99 54.97 133.54 53.98 133.12C52.99 132.7 52.45 131.47 52.79 130.38C53.1 129.38 53.01 128.2 52.54 127.14C52.08 126.09 51.3 125.27 50.41 124.89C48.59 124.12 46.21 125.33 45.6 127.33C44.81 129.91 38.52 150.52 37.73 153.1C35.11 161.7 35.45 166.75 35.81 172.09C36.07 176.05 36.35 180.13 35.58 185.76C39.6 187.47 71.71 201.07 75.72 202.77C80.62 194.04 88.77 184.35 99.97 173.93C101.18 172.8 102.38 171.71 103.57 170.65C106.61 167.94 108.27 163.33 107.62 159.44C107.33 157.68 106.4 155.33 103.67 154.18C102.68 153.75 102.15 152.53 102.48 151.43C102.82 150.34 103.89 149.79 104.88 150.21C108.37 151.69 110.67 154.75 111.35 158.83C112.26 164.25 110.11 170.35 106 174.02C104.84 175.06 103.65 176.13 102.46 177.24C90.96 187.95 82.8 197.8 78.21 206.51C77.93 207.04 77.46 207.38 76.94 207.47C76.62 207.53 76.29 207.49 75.96 207.35C71.65 205.53 37.15 190.91 32.84 189.08C31.94 188.7 31.41 187.65 31.58 186.62C32.59 180.57 32.3 176.33 32.03 172.23Z" id="a4lxKW93KF"></path></defs><g>
<g><use xlink:href="#aaIc2dMKR" opacity="1" fill="#566c80" fill-opacity="1"></use></g>
<g><use xlink:href="#g4ZDEaGLo" opacity="1" fill="#c1b6dd" fill-opacity="1"></use></g>
<g><use xlink:href="#b3Pz27T9co" opacity="1" fill="#d5355e" fill-opacity="1"></use></g>
<g><use xlink:href="#amsURxkkr" opacity="1" fill="#ffffff" fill-opacity="1"></use><g><use xlink:href="#amsURxkkr" opacity="1" fill-opacity="0" stroke="#000000" stroke-width="1" stroke-opacity="0.7"></use></g></g>
<g><use xlink:href="#a4lxKW93KF" opacity="1" fill="#ffffff" fill-opacity="1"></use><g><use xlink:href="#a4lxKW93KF" opacity="1" fill-opacity="0" stroke="#000000" stroke-width="1" stroke-opacity="0.7"></use></g></g>

</g></svg>